<?xml version="1.0" encoding="UTF-8"?>
<svg version="1.1" xmlns="http://www.w3.org/2000/svg" width="512" height="512">
<path d="M0 0 C2.93958994 0.00315173 5.87816088 -0.02037543 8.81762695 -0.0456543 C22.190767 -0.09031354 35.08687219 1.11515841 48.27270508 3.31567383 C49.40973877 3.50379639 50.54677246 3.69191895 51.71826172 3.88574219 C94.98573267 11.65772851 136.03563724 31.64472074 169.27270508 60.31567383 C170.0177832 60.94989258 170.76286133 61.58411133 171.53051758 62.23754883 C185.0355034 74.04868897 197.70689251 86.79927611 208.27270508 101.31567383 C209.12919574 102.46562214 209.98596941 103.61535971 210.84301758 104.76489258 C216.88304716 112.95501641 222.26638122 121.45947 227.27270508 130.31567383 C227.67489258 131.02288574 228.07708008 131.73009766 228.49145508 132.45874023 C241.51687918 155.59413218 250.26571969 180.76529792 255.58520508 206.75317383 C255.73256104 207.47206787 255.87991699 208.19096191 256.03173828 208.93164062 C259.00559596 224.57792992 259.6457087 240.05135429 259.58520508 255.94067383 C259.58304993 256.95858002 259.58089478 257.97648621 259.57867432 259.02523804 C259.52900362 273.63430906 259.27810699 287.96643236 256.27270508 302.31567383 C255.97468994 303.7779541 255.97468994 303.7779541 255.6706543 305.26977539 C245.55003314 353.65165123 223.63351738 397.63995652 189.27270508 433.31567383 C188.64058105 433.9750293 188.00845703 434.63438477 187.35717773 435.3137207 C178.21273029 444.80197688 168.91536498 453.54187823 158.27270508 461.31567383 C157.12165491 462.17373534 155.9706133 463.03180834 154.81958008 463.88989258 C146.62994527 469.92744779 138.12732232 475.31024685 129.27270508 480.31567383 C128.56549316 480.71786133 127.85828125 481.12004883 127.12963867 481.53442383 C103.99424672 494.55984793 78.82308098 503.30868844 52.83520508 508.62817383 C52.11631104 508.77552979 51.39741699 508.92288574 50.65673828 509.07470703 C35.01044899 512.04856471 19.53702461 512.68867745 3.64770508 512.62817383 C2.12084579 512.6249411 2.12084579 512.6249411 0.56314087 512.62164307 C-14.04593015 512.57197237 -28.37805345 512.32107574 -42.72729492 509.31567383 C-44.1895752 509.01765869 -44.1895752 509.01765869 -45.68139648 508.71362305 C-94.06327233 498.59300189 -138.05157761 476.67648613 -173.72729492 442.31567383 C-174.38665039 441.6835498 -175.04600586 441.05142578 -175.7253418 440.40014648 C-185.21359798 431.25569904 -193.95349932 421.95833373 -201.72729492 411.31567383 C-202.58535644 410.16462366 -203.44342943 409.01358205 -204.30151367 407.86254883 C-210.33966321 399.67136768 -215.69825013 391.15763278 -220.72729492 382.31567383 C-221.09177734 381.68387207 -221.45625977 381.05207031 -221.83178711 380.40112305 C-243.43764491 342.6528481 -253.20427587 299.88627386 -253.03979492 256.69067383 C-253.03763977 255.67276764 -253.03548462 254.65486145 -253.03326416 253.60610962 C-252.98359346 238.9970386 -252.73269683 224.6649153 -249.72729492 210.31567383 C-249.52861816 209.34082031 -249.32994141 208.3659668 -249.12524414 207.36157227 C-239.00462298 158.97969642 -217.08810722 114.99139114 -182.72729492 79.31567383 C-182.0951709 78.65631836 -181.46304688 77.99696289 -180.81176758 77.31762695 C-171.66732013 67.82937077 -162.36995483 59.08946943 -151.72729492 51.31567383 C-150.57624476 50.45761231 -149.42520315 49.59953932 -148.27416992 48.74145508 C-140.08453511 42.70389986 -131.58191217 37.32110081 -122.72729492 32.31567383 C-122.02008301 31.91348633 -121.31287109 31.51129883 -120.58422852 31.09692383 C-97.44883657 18.07149973 -72.27767083 9.32265922 -46.28979492 4.00317383 C-45.57090088 3.85581787 -44.85200684 3.70846191 -44.11132812 3.55664062 C-29.43568994 0.76727258 -14.91060654 -0.03325236 0 0 Z " fill="#50AF00" transform="translate(252.727294921875,-0.315673828125)"/>
<path d="M0 0 C1.09441406 -0.02513672 1.09441406 -0.02513672 2.2109375 -0.05078125 C9.5601035 1.05516121 14.00409894 6.29795123 18.9375 11.375 C19.66517578 12.10783203 20.39285156 12.84066406 21.14257812 13.59570312 C27.77574528 20.32778051 27.77574528 20.32778051 27.9375 26.5 C27.99357422 27.88251953 27.99357422 27.88251953 28.05078125 29.29296875 C27.07529543 36.21086359 22.36565388 41.00542571 17.57128906 45.70678711 C16.97573715 46.3027771 16.38018524 46.89876709 15.7665863 47.51281738 C13.81496516 49.46236439 11.85296823 51.40109479 9.890625 53.33984375 C8.52805151 54.69681641 7.16614301 56.05445711 5.80487061 57.41273499 C2.23420382 60.97199144 -1.34538222 64.52214298 -4.92694092 68.07043457 C-8.58566077 71.69837131 -12.23581811 75.33490078 -15.88671875 78.97070312 C-23.04115414 86.09304165 -30.20504756 93.20578485 -37.375 100.3125 C-35.73667867 100.31608253 -35.73667867 100.31608253 -34.06525993 100.31973743 C-7.50031591 100.37850849 19.06453725 100.45437649 45.62938118 100.54821491 C58.47589422 100.59319769 71.32237938 100.63260667 84.16894531 100.65893555 C95.36483268 100.68189548 106.56063201 100.71527111 117.75644958 100.76120156 C123.68560909 100.78516073 129.61468126 100.80387189 135.54388809 100.81011391 C141.12364295 100.81615251 146.70317427 100.83610824 152.28284645 100.86677551 C154.33148332 100.87557535 156.38014939 100.87927431 158.4288044 100.87750816 C161.22518521 100.87585845 164.02088212 100.89252908 166.81716919 100.91377258 C167.62846413 100.90892501 168.43975907 100.90407743 169.2756387 100.89908296 C174.79057618 100.96825867 179.08484267 101.94128425 183.26953125 105.84765625 C188.17558596 112.26326625 187.87041129 116.56116942 187.9375 124.5 C187.96650391 125.62470703 187.99550781 126.74941406 188.02539062 127.90820312 C188.07679292 134.6339958 187.70765745 138.88137357 183.625 144.3125 C178.35650495 149.19549541 174.10785797 149.46245261 167.17793274 149.47071838 C166.30557281 149.47565636 165.43321288 149.48059434 164.53441781 149.48568195 C161.60017698 149.50108656 158.66595809 149.5094256 155.73168945 149.51782227 C153.63274949 149.52739846 151.53381147 149.53740839 149.43487549 149.54782104 C143.72656988 149.5749042 138.01825597 149.59589529 132.3099215 149.61582303 C126.34813432 149.63766156 120.38637281 149.66506067 114.42460632 149.69187927 C103.13056829 149.74183504 91.83651603 149.78676317 80.54245013 149.82990164 C67.68650179 149.87924938 54.83057919 149.93417663 41.97465575 149.98958123 C15.52479452 150.10344555 -10.92509141 150.21027489 -37.375 150.3125 C-36.60492111 151.07813766 -35.83484222 151.84377533 -35.04142761 152.63261414 C-27.78205558 159.85142904 -20.52798069 167.07552954 -13.27904797 174.30482769 C-9.55220424 178.02123774 -5.82352441 181.73576579 -2.09057617 185.44604492 C1.51237167 189.02724982 5.11040093 192.61332917 8.70508385 196.20282936 C10.07684259 197.57089498 11.45035943 198.93720012 12.82566261 200.3017025 C14.75280927 202.21431521 16.6735895 204.13311239 18.59301758 206.0534668 C19.16197754 206.61523621 19.7309375 207.17700562 20.31713867 207.75579834 C24.82748673 212.28973025 28.05304022 216.08085177 28.0625 222.75 C28.08183594 223.65621094 28.10117188 224.56242188 28.12109375 225.49609375 C26.93569678 232.22578838 21.35095967 236.92361072 16.6875 241.5625 C16.07970703 242.18640625 15.47191406 242.8103125 14.84570312 243.453125 C10.37285777 247.93079543 6.71998468 250.57105642 0.1875 250.6875 C-0.53308594 250.71585938 -1.25367188 250.74421875 -1.99609375 250.7734375 C-7.4336661 249.71985205 -11.53114535 245.40750241 -15.33502197 241.61317444 C-15.79609525 241.1559267 -16.25716854 240.69867897 -16.73221374 240.22757524 C-18.26145293 238.70857747 -19.7835324 237.18261146 -21.30566406 235.65649414 C-22.40633349 234.56017593 -23.50741881 233.46427513 -24.60888672 232.36875916 C-27.5885564 229.40244244 -30.56182781 226.42979116 -33.53355885 223.45552373 C-36.0170322 220.97097876 -38.50347989 218.48942091 -40.98988128 216.00780672 C-46.85433062 210.15443844 -52.71345267 204.29577494 -58.56933594 198.43383789 C-64.60914952 192.38797661 -70.65810004 186.35136847 -76.71156526 180.31917864 C-81.91284262 175.13551002 -87.1083021 169.94606054 -92.29915404 164.75195211 C-95.3977558 161.65153716 -98.49854304 158.5533907 -101.6049881 155.4608326 C-104.52390045 152.55448306 -107.43548356 149.64098592 -110.34158325 146.72182655 C-111.40886533 145.65217628 -112.47871076 144.58507661 -113.55129242 143.52074051 C-115.01554719 142.06693351 -116.47023956 140.60417593 -117.9229126 139.1388092 C-118.73920261 138.32268693 -119.55549263 137.50656466 -120.39651871 136.6657114 C-123.90724644 132.49004163 -124.59389271 128.88167308 -124.73828125 123.47265625 C-123.81598182 117.98844569 -120.57601304 114.13851389 -116.75123596 110.31451416 C-116.29005353 109.84935733 -115.82887111 109.38420049 -115.35371345 108.904948 C-113.81778977 107.35945578 -112.27144924 105.82484581 -110.72485352 104.29003906 C-109.61698496 103.1797408 -108.50976263 102.06879742 -107.40313721 100.95726013 C-104.40382964 97.94856616 -101.39521907 94.94933874 -98.38455701 91.95201206 C-95.23326437 88.81205294 -92.08970635 85.66436703 -88.9450531 82.51776123 C-83.66509784 77.23692379 -78.37920097 71.96209224 -73.08959961 66.69091797 C-66.9739806 60.5964818 -60.8672547 54.49324659 -54.76533753 48.38509393 C-48.8930144 42.50707737 -43.01503905 36.63474616 -37.13426018 30.76519012 C-34.63220499 28.2677795 -32.13204426 25.76849467 -29.63336372 23.26770782 C-26.69214563 20.32460682 -23.74598187 17.38654728 -20.7959137 14.45231819 C-19.71383043 13.37447875 -18.63343976 12.294937 -17.5548687 11.21358299 C-16.08306775 9.73856107 -14.60526004 8.26983233 -13.12574768 6.80255127 C-12.30003045 5.97888691 -11.47431322 5.15522255 -10.62357426 4.30659866 C-7.20590935 1.27571765 -4.55942371 0.02399697 0 0 Z " fill="#FEFEFE" transform="translate(224.375,130.6875)"/>
</svg>
